<svg width="36" height="36" viewBox="0 0 36 36" fill="none" xmlns="http://www.w3.org/2000/svg">
<path d="M16.2348 18.0397C11.8951 18.0043 7.55533 17.976 3.21559 17.9282C2.35062 17.9185 1.48438 17.8501 0.622888 17.7648C0.480364 17.7492 0.345825 17.6907 0.23688 17.5969C0.127934 17.503 0.0496484 17.3783 0.0122575 17.2389C-0.0584915 17.0158 0.18747 16.6994 0.481229 16.6528C0.766124 16.6077 1.04958 16.5378 1.3359 16.5204C3.16445 16.4088 4.99286 16.2509 6.82315 16.2176C10.5834 16.1496 14.3449 16.1324 18.1059 16.1281C21.6743 16.1239 25.2427 16.1689 28.811 16.1771C29.384 16.1786 29.9573 16.1059 30.5293 16.0544C30.5672 16.045 30.6022 16.0261 30.631 15.9995C30.6598 15.9729 30.6816 15.9395 30.6942 15.9023C30.7045 15.8133 30.6784 15.6632 30.6196 15.6313C29.5231 15.0312 28.44 14.3998 27.3125 13.8642C24.6894 12.6182 22.2287 11.0903 19.7697 9.55725C19.3657 9.3053 18.9421 9.04938 18.7791 8.54947C18.7495 8.45848 18.7033 8.30263 18.7409 8.27219C18.8758 8.14553 19.0398 8.05447 19.2181 8.00717C19.4081 7.98459 19.6005 8.0156 19.774 8.09673C20.3884 8.37688 20.9984 8.66931 21.5962 8.98356C25.8688 11.2296 30.1401 13.478 34.41 15.729C36.0228 16.5736 36.7892 17.3926 34.8532 19.2496C34.2954 19.7849 33.7312 20.3193 33.1247 20.7953C30.3118 23.0051 27.4887 25.2014 24.6552 27.3841C24.2657 27.6656 23.8548 27.9161 23.4265 28.1331C23.1472 28.2858 22.8675 28.1953 22.6263 28.0122C22.3608 27.8106 22.1961 27.2246 22.2876 26.967C22.4909 26.3949 22.8962 25.9751 23.3312 25.595C25.0066 24.1318 26.6909 22.6791 28.3842 21.2369C29.4845 20.2945 30.5964 19.3659 31.695 18.4215C31.7493 18.375 31.752 18.2303 31.73 18.1433C31.7155 18.1056 31.6922 18.0721 31.6621 18.0455C31.6319 18.0189 31.5958 18.0001 31.5568 17.9906C30.9826 17.9527 30.4074 17.9044 29.8327 17.9075C25.2999 17.9316 20.7671 17.9616 16.2343 17.9976L16.2348 18.0397Z" fill="black"/>
</svg>
