<svg width="37" height="36" viewBox="0 0 37 36" fill="none" xmlns="http://www.w3.org/2000/svg">
<path d="M18.3324 25.8314C20.0538 23.6559 21.5971 21.7199 23.1274 19.7723C25.6332 16.5826 28.0814 13.3452 30.6556 10.2124C31.729 8.90623 33.0572 7.80713 34.2886 6.63415C34.8173 6.13036 35.4978 5.69052 36.135 6.28788C36.8427 6.95078 36.3971 7.67427 35.8467 8.2276C29.9228 14.18 25.8584 21.5487 20.7051 28.0886C19.1864 30.0156 17.9075 30.2667 16.0287 28.6351C15.4263 28.13 14.8618 27.5816 14.3394 26.9942C10.6742 22.7256 6.9738 18.485 3.41109 14.132C2.26721 12.7344 1.47957 11.0391 0.589417 9.44591C0.437913 9.17436 0.49923 8.45878 0.62295 8.41632C1.0772 8.25904 1.74165 8.08681 2.07087 8.30541C3.36574 9.16595 4.72667 10.0233 5.7644 11.1557C8.2692 13.8888 10.5997 16.781 13.0135 19.5977C14.4332 21.2546 15.8811 22.8871 17.3089 24.5371C17.6205 24.898 17.9023 25.2865 18.3324 25.8314Z" fill="white"/>
</svg>
