<svg width="30" height="35" viewBox="0 0 30 35" fill="none" xmlns="http://www.w3.org/2000/svg">
<path d="M5.95313 31.0901C4.94308 31.022 4.0068 30.9647 3.07142 30.8938C2.4175 30.8442 1.7994 30.6975 1.25128 30.2905C0.33056 29.6068 0.0408772 28.6273 0.018513 27.5603C-0.0143141 26.0026 -0.00110837 24.4425 0.0394346 22.8847C0.0807626 21.3046 0.145372 19.7235 0.259416 18.1472C0.502283 14.7895 0.60704 11.4281 0.699505 8.0631C0.765783 6.43705 1.06241 4.82895 1.58035 3.28778C2.01272 1.94132 2.88218 1.10757 4.28341 0.875636C4.61442 0.820721 4.94583 0.75789 5.27959 0.730433C9.9643 0.355536 14.6438 -0.140808 19.3548 0.0374006C20.3599 0.0755503 21.3665 0.157912 22.3646 0.284638C23.604 0.441989 24.2479 1.14518 24.2921 2.40241C24.3279 3.43312 24.2739 4.46712 24.2584 5.59313C24.4609 5.59313 24.7013 5.57505 24.9385 5.59657C25.6951 5.66508 26.4568 5.70983 27.2049 5.83418C28.4059 6.0343 29.1405 6.7635 29.459 7.95868C29.7177 8.98709 29.8724 10.0393 29.9208 11.0992C30.13 14.5599 29.8932 18.0031 29.5782 21.4485C29.455 22.795 29.4475 24.1546 29.4196 25.5093C29.3917 26.8639 29.4327 28.2211 29.384 29.5751C29.3583 30.3415 29.2661 31.1041 29.1086 31.8543C28.7565 33.5083 27.6524 34.4997 25.9385 34.6976C24.7397 34.8498 23.534 34.9393 22.3261 34.9659C18.8128 35.003 15.2984 35.0197 11.7856 34.9642C10.6316 34.9461 9.46928 34.7438 8.33289 34.5162C7.00216 34.2497 6.17951 33.2282 6.03107 31.8557C6.00426 31.6121 5.98112 31.3677 5.95313 31.0901ZM8.21035 21.2789H8.12455C8.0793 22.7682 8.03396 24.2576 7.98854 25.747C7.93308 27.4844 7.86992 29.2214 7.82022 30.959C7.81198 31.2508 7.86037 31.5438 7.87371 31.8367C7.89987 32.416 8.21531 32.7767 8.7527 32.8822C9.67251 33.0628 10.598 33.2757 11.5289 33.3244C13.4713 33.426 15.4196 33.4858 17.364 33.4586C19.7783 33.4248 22.1918 33.2966 24.6042 33.1828C25.1172 33.1487 25.6254 33.0627 26.1213 32.9259C26.7313 32.7692 27.1489 32.3589 27.2541 31.721C27.3962 30.9689 27.4878 30.2079 27.5281 29.4433C27.572 27.8864 27.5262 26.3272 27.555 24.7703C27.5767 23.5973 27.6073 22.4206 27.7208 21.2538C28.016 18.2177 28.2143 15.1782 28.0698 12.1265C28.0164 11.0012 27.9447 9.87528 27.6486 8.77686C27.5154 8.28302 27.2694 7.97796 26.7311 7.96792C25.4363 7.94377 24.1405 7.86576 22.8468 7.89111C20.6103 7.9348 18.3765 8.04396 16.1413 8.11881C14.5537 8.17161 12.9652 8.19801 11.3783 8.26745C10.6664 8.2986 9.93893 8.33714 9.28998 8.68393C9.06686 8.80273 8.7603 8.99758 8.7259 9.19876C8.63372 9.83215 8.47699 10.4543 8.25821 11.0552C8.22243 11.2094 8.21283 11.3686 8.22984 11.526C8.2216 12.0452 8.21179 12.5645 8.21139 13.0837C8.20947 15.815 8.20912 18.5467 8.21035 21.2789ZM5.92788 29.1681C5.95312 28.7102 5.97733 28.3505 5.99211 27.9903C6.06804 26.1401 6.14281 24.2898 6.2164 22.4393C6.3332 19.5738 6.44044 16.7078 6.57253 13.843C6.65571 12.0397 6.71352 10.2306 7.09724 8.45819C7.16794 8.15601 7.30298 7.87298 7.49299 7.6288C8.03017 6.94849 8.80343 6.4997 9.65617 6.37329C10.7806 6.18562 11.915 6.06524 13.0535 6.01279C15.9594 5.87551 18.8676 5.79129 21.7748 5.68278C21.9485 5.67631 22.1212 5.64316 22.36 5.61491C22.4309 4.5388 22.4433 3.49319 22.2198 2.36612C21.1001 2.29616 19.9875 2.20005 18.873 2.1615C14.5465 2.01168 10.2443 2.46142 5.93509 2.73058C5.42398 2.76239 4.91888 2.88424 4.40882 2.94535C3.81832 3.01624 3.50785 3.37767 3.33574 3.91732C2.90017 5.24651 2.63256 6.62587 2.53926 8.02271C2.34465 11.3131 2.14493 14.6041 2.02579 17.8979C1.91632 20.9209 1.90352 23.9487 1.86507 26.9745C1.87117 27.3807 1.91939 27.7851 2.00893 28.1811C2.11264 28.703 2.39984 28.9564 2.93031 29.0084C3.6202 29.076 4.31231 29.1222 5.00416 29.1651C5.28901 29.1833 5.5762 29.1681 5.92788 29.1681Z" fill="#090B0E"/>
</svg>
