<svg width="36" height="36" viewBox="0 0 36 36" fill="none" xmlns="http://www.w3.org/2000/svg">
<path d="M17.7548 21.1652C14.8847 23.6962 12.0779 26.1477 9.29922 28.6298C7.68946 30.0677 6.13735 31.5679 4.53135 33.0097C4.1036 33.4035 3.61208 33.7237 3.07704 33.9568C2.8132 34.0659 2.24347 33.9568 2.11354 33.757C1.94163 33.4917 1.99245 33.0208 2.0857 32.6746C2.15354 32.4221 2.42975 32.2131 2.63812 32.0104C6.60082 28.1673 10.5653 24.3266 14.5316 20.4884C14.9766 20.0579 15.4344 19.6405 15.9457 19.1625C14.2125 17.2704 12.4765 15.4446 10.8192 13.551C8.17425 10.5273 5.58233 7.45872 2.9685 4.40891C2.87348 4.29807 2.79175 4.17675 2.69585 4.06592C2.23844 3.53332 1.91597 2.95928 2.43679 2.31323C2.8268 1.82951 3.75915 1.90176 4.40835 2.55981C6.02518 4.19817 7.60017 5.87624 9.16197 7.56718C12.0138 10.653 14.8434 13.7589 17.685 16.8539C17.8067 16.9664 17.936 17.0706 18.0721 17.1656C20.2694 15.097 22.4424 13.0351 24.6335 10.9909C27.1747 8.62144 29.7247 6.26126 32.2837 3.91037C33.2436 3.02672 34.0133 2.86744 34.6024 3.38302C35.2129 3.91714 35.156 4.80949 34.1824 5.76624C31.5503 8.35328 28.8545 10.8775 26.1613 13.4045C24.1096 15.3302 22.0252 17.2228 19.8416 19.2343C21.616 21.0419 23.3131 22.8437 25.0923 24.5621C26.8013 26.2127 28.6057 27.7675 30.3483 29.3841C31.0296 29.9924 31.6674 30.6464 32.2576 31.3414C32.7336 31.9246 32.8039 32.6486 32.2187 33.2237C31.6422 33.791 30.9747 33.5905 30.4185 33.1611C29.3547 32.3825 28.3349 31.5468 27.3638 30.6578C24.3911 27.7902 21.4709 24.87 18.5315 21.9688C18.2991 21.7397 18.077 21.4993 17.7548 21.1652Z" fill="white"/>
</svg>
