<svg width="36" height="36" viewBox="0 0 36 36" fill="none" xmlns="http://www.w3.org/2000/svg">
<path d="M2.23259 28.3803C2.1507 28.924 2.5847 29.5442 3.18008 29.735C3.49179 29.8348 3.81489 29.8923 4.14112 29.9059C4.41348 29.9162 4.68584 29.9285 4.95819 29.9412C5.59569 29.9701 6.24848 30 6.90104 30C7.16323 30 7.42539 29.9951 7.68612 29.9834C8.95549 29.9274 10.2443 29.8438 11.4906 29.763C12.9835 29.6665 14.527 29.5668 16.0455 29.5127C19.9987 29.3721 23.9669 28.8131 27.8046 28.2726L28.3025 28.2024C29.2022 28.0761 30.1325 27.945 31.0397 27.7601C31.0798 27.752 31.1212 27.7448 31.1633 27.7375C31.5277 27.6736 32.0782 27.5775 32.2201 26.7173C32.2277 26.6706 32.2184 26.6228 32.1939 26.5829C32.1694 26.5429 32.1314 26.5136 32.0871 26.5008C31.9918 26.4728 31.9036 26.442 31.8199 26.4127C31.6485 26.3434 31.4685 26.2982 31.2853 26.2787L30.707 26.2436C29.3728 26.1626 27.9933 26.0789 26.6336 26.0416C22.7809 25.9334 18.9252 26.0364 15.083 26.3501C12.6078 26.5554 10.0876 26.7234 7.65021 26.886C6.41552 26.9683 5.18076 27.0523 3.94608 27.138C3.68241 27.1499 3.42132 27.1962 3.169 27.2757C2.92633 27.3481 2.70908 27.4907 2.54307 27.6867C2.37706 27.8825 2.26924 28.1233 2.23259 28.3803Z" fill="white"/>
<path d="M2.22314 18.6948C2.21707 18.8984 2.26773 19.0995 2.3692 19.2749C2.47067 19.4503 2.61879 19.5929 2.79646 19.686C3.09825 19.8371 3.42626 19.9262 3.7618 19.9483C4.20673 19.9761 4.67362 20 5.14768 20C5.37958 20 5.61302 19.9942 5.84638 19.9804C7.23851 19.899 8.6515 19.8027 10.0187 19.7097C12.5782 19.5356 15.2247 19.3549 17.8293 19.264C21.3748 19.1396 24.9393 18.6958 28.3865 18.2665C29.2903 18.1545 30.1933 18.0439 31.096 17.9347C31.1678 17.9263 31.2407 17.9194 31.3147 17.9125C31.843 17.863 32.5008 17.8014 33.1721 17.0685C33.1928 17.0458 33.208 17.0183 33.2159 16.9883C33.224 16.9584 33.2249 16.927 33.2183 16.8967C33.2119 16.8664 33.1981 16.8381 33.1785 16.8143C33.1591 16.7905 33.1342 16.7719 33.106 16.7601C31.8796 16.2458 30.8191 16.1754 29.7506 16.1439L28.8181 16.1164C25.8646 16.0289 22.811 15.9383 19.7953 16.0565C14.7261 16.2555 9.76192 16.7584 4.2632 17.3466C3.7463 17.4041 3.24249 17.5496 2.77285 17.7771C2.60561 17.8616 2.46522 17.9927 2.36795 18.1551C2.27068 18.3175 2.22049 18.5046 2.22314 18.6948Z" fill="white"/>
<path d="M3.84251 9.49414C4.19388 9.66318 4.57394 9.76645 4.96352 9.79868C5.17717 9.8143 5.39093 9.83041 5.60481 9.84698C6.59195 9.92226 7.61009 10 8.61865 10C8.6966 10 8.7747 10 8.85266 9.99861C10.7592 9.975 12.697 9.93112 14.571 9.88869C17.0573 9.83258 19.6284 9.7745 22.1564 9.76295C25.7752 9.74644 29.4105 9.3384 32.9264 8.94386L33.0391 8.93129C33.2607 8.8894 33.4724 8.80721 33.6636 8.68892C33.7916 8.62215 33.9367 8.54686 34.115 8.46553C34.1468 8.45109 34.1738 8.42803 34.1929 8.39903C34.212 8.37004 34.2223 8.33631 34.2226 8.30176C34.2232 8.2672 34.2136 8.23324 34.1953 8.20383C34.1767 8.17442 34.1503 8.15074 34.1188 8.1356C33.9351 8.04681 33.7806 7.96159 33.6444 7.88559C33.4305 7.74365 33.1903 7.64497 32.9374 7.59528L32.2466 7.51326C30.9046 7.35345 29.5169 7.18742 28.1437 7.13095C20.7455 6.82626 13.2333 7.11233 5.96866 7.38915L4.66489 7.4387C4.46772 7.44635 4.27184 7.47377 4.0803 7.52054C3.86119 7.56124 3.661 7.66984 3.50881 7.83054C3.35662 7.99124 3.26034 8.19566 3.2341 8.41403C3.20034 8.63505 3.24176 8.86088 3.35181 9.05627C3.46186 9.25166 3.63442 9.40563 3.84251 9.49414Z" fill="white"/>
</svg>
