<svg width="24" height="24" viewBox="0 0 24 24" fill="none" xmlns="http://www.w3.org/2000/svg">
<g clip-path="url(#clip0_108_2263)">
<path d="M5.3822 15.5805C7.03592 15.8714 8.6852 15.7403 10.4247 15.1795C11.4391 14.8602 12.4066 14.4019 13.3007 13.8172C13.4689 14.0082 13.6354 14.1983 13.8002 14.3874C14.2049 14.8509 14.588 15.2887 14.9885 15.728C16.9459 17.8753 19.0694 19.917 21.1231 21.8916C21.4964 22.2506 21.8695 22.6099 22.2423 22.9693C22.5347 23.242 22.8558 23.4804 23.1997 23.6803C23.2846 23.7265 23.38 23.7493 23.4761 23.7465C23.5767 23.748 23.6764 23.7266 23.768 23.6839C23.8175 23.6584 23.8615 23.623 23.8974 23.5798C23.9334 23.5366 23.9605 23.4865 23.9772 23.4324C23.9968 23.368 24.0039 23.3003 23.9979 23.233C23.992 23.1658 23.9731 23.1005 23.9425 23.0406C23.78 22.6932 23.5814 22.3646 23.3503 22.0606C22.9777 21.6088 22.5813 21.178 22.1629 20.7702C21.1884 19.8062 20.1936 18.8306 19.2315 17.8871C18.5644 17.233 17.8977 16.5784 17.2315 15.9231C16.5439 15.2461 15.8743 14.581 15.1654 13.8759C14.8768 13.5889 14.5862 13.3003 14.2938 13.01L14.3317 12.9675C14.3868 12.906 14.4295 12.8582 14.475 12.813C15.583 11.7161 16.1905 10.3438 16.2807 8.73464C16.4372 5.94019 15.5158 3.56797 13.5425 1.68304C12.5758 0.737573 11.3216 0.159061 9.98853 0.0437497C8.69206 -0.0837539 7.38386 0.0681864 6.1484 0.489771C4.25434 1.14832 2.64653 2.41173 1.36984 4.24499C0.269835 5.82446 -0.171068 7.577 0.0593968 9.45395C0.209717 10.6787 0.694537 11.8393 1.6312 13.2173C2.51634 14.519 3.74309 15.2919 5.3822 15.5805ZM7.3409 1.93108C7.7815 1.89284 8.2371 1.85339 8.68451 1.83825C8.76031 1.83583 8.83539 1.83458 8.90974 1.83451C10.9491 1.83451 12.5161 2.78036 13.57 4.64833C14.5131 6.31983 14.7799 7.92171 14.3858 9.54538C14.2507 10.1542 13.981 10.7234 13.5972 11.209C13.121 11.801 12.5422 12.2982 11.8897 12.6757C10.4 13.5403 8.72445 14.0155 7.01194 14.0591C6.8477 14.0405 6.68307 14.0241 6.51844 14.0076C6.15561 13.9715 5.78036 13.934 5.41684 13.8733C4.51327 13.7341 3.69223 13.2574 3.1122 12.5354C2.4053 11.6924 1.89495 10.6962 1.61965 9.62207C1.30393 8.377 1.419 7.05861 1.94536 5.89036C2.53303 4.55601 3.31354 3.5715 4.33164 2.88066C5.14631 2.32797 5.88902 2.04371 6.66875 1.98639C6.8929 1.96994 7.11666 1.95046 7.34051 1.93108H7.3409Z" fill="white"/>
</g>
<defs>
<clipPath id="clip0_108_2263">
<rect width="24" height="24" fill="white"/>
</clipPath>
</defs>
</svg>
