<svg width="37" height="36" viewBox="0 0 37 36" fill="none" xmlns="http://www.w3.org/2000/svg">
<path d="M18.6585 2.51099C18.5466 3.1563 18.6166 6.2292 18.7565 6.36748C18.8125 6.42894 18.9105 6.42894 18.9945 6.36748C19.1625 6.25993 19.2184 2.66464 19.0645 2.23443C18.9245 1.83495 18.7425 1.95787 18.6585 2.51099Z" fill="white"/>
<path d="M26.9948 5.04775C26.3846 5.69209 25.2236 7.53522 25.2236 7.81993C25.2236 8.47927 25.8339 7.81993 26.9502 5.94683C27.5753 4.92787 27.5902 4.38841 26.9948 5.04775Z" fill="white"/>
<path d="M10.3276 7.70039C10.3276 8.03116 13.1022 10.8276 13.4278 10.8276C13.8808 10.8276 13.6684 10.5119 12.1254 8.90318C10.8939 7.62522 10.3276 7.24935 10.3276 7.70039Z" fill="white"/>
<path d="M20.0799 10.3622C19.0749 11.4328 17.6709 13.1726 16.9911 14.2284L16.7546 14.5853L13.8876 14.1094C10.3997 13.5295 8.50806 13.3808 7.9908 13.6633C7.53265 13.9013 7.4292 14.5555 7.76912 15.0611C8.06469 15.5221 9.89727 16.9794 11.6116 18.1393C12.3358 18.63 13.0008 19.0761 13.0747 19.1504C13.1486 19.2099 12.7791 19.7452 12.2471 20.3549C10.252 22.6152 8.87753 24.6524 8.87753 25.3513C8.87753 25.5 8.95142 25.6933 9.05487 25.7974C9.48346 26.2286 10.4736 25.9312 14.2866 24.2658C15.6758 23.6561 16.9172 23.1505 17.065 23.1505C17.198 23.1505 17.6266 23.4925 18.0108 23.9238C20.1981 26.3327 22.4888 28.2956 23.3017 28.4443C24.4396 28.6525 24.484 28.0874 23.6416 24.7565C22.947 22.0501 22.9174 22.2286 24.3066 21.7378C25.3559 21.3661 27.1589 20.4441 27.9127 19.8939C28.3856 19.5371 28.5334 19.3289 28.5334 19.0017C28.5334 18.4069 28.1639 18.1987 25.9914 17.5742C22.6071 16.5779 22.3706 16.4887 22.1933 16.0426C22.0898 15.7898 22.0455 14.5704 22.0603 12.6224C22.1046 9.78221 22.0898 9.5889 21.8238 9.38072C21.6612 9.26176 21.4543 9.17253 21.3804 9.17253C21.2918 9.17253 20.7006 9.70786 20.0799 10.3622ZM21.2918 13.47V16.4292L21.676 16.8902C22.0603 17.366 22.814 17.6337 26.154 18.5705C26.8486 18.7638 27.425 18.9869 27.4545 19.0761C27.4841 19.1653 26.7304 19.6263 25.7697 20.0873C24.8091 20.5631 23.6564 21.1282 23.213 21.3363C22.1194 21.8865 22.075 22.1393 22.6514 24.3253C23.346 27.0019 23.4199 27.3142 23.3165 27.4034C23.1391 27.5818 22.4445 27.0019 20.2425 24.8457C19.0454 23.6858 17.8926 22.6152 17.6857 22.4665C17.1241 22.1096 16.666 22.2286 13.6511 23.5074C10.9613 24.6375 10.2076 24.9052 10.2076 24.7119C10.2076 24.4591 11.3899 22.8531 12.7348 21.2917C13.6954 20.1765 14.1979 19.4776 14.1979 19.2397C14.1979 18.8084 13.7989 18.4367 11.7594 17.0091C10.8727 16.3697 9.8086 15.5667 9.39479 15.195L8.65585 14.5407L9.43912 14.5258C9.86771 14.5258 11.6559 14.7637 13.3999 15.0611C15.1438 15.3585 16.666 15.5518 16.7842 15.5072C16.8877 15.4775 17.9074 14.3325 19.0306 12.9793C20.1538 11.6112 21.1144 10.5109 21.1735 10.5109C21.2474 10.5109 21.2918 11.8492 21.2918 13.47Z" fill="white"/>
<path d="M28.987 11.9313C26.9264 13.1878 26.6526 13.4234 27.0129 13.5804C27.3587 13.7218 31.2926 11.3188 31.2926 10.9733C31.2926 10.6278 30.7162 10.879 28.987 11.9313Z" fill="white"/>
<path d="M1.51482 12.117C1.59285 12.3746 4.11569 13.5864 4.53183 13.5864C5.15604 13.5864 4.71389 13.1926 3.37444 12.5715C1.96997 11.905 1.39778 11.7686 1.51482 12.117Z" fill="white"/>
<path d="M5.85225 19.7136C4.26156 20.4933 3.78436 20.7903 3.71205 21.0687C3.68313 21.2172 3.7699 21.3101 3.92897 21.3101C4.34833 21.2915 7.48633 19.5651 7.55863 19.3052C7.6454 18.9525 7.16819 19.0453 5.85225 19.7136Z" fill="white"/>
<path d="M30.4543 19.7035C30.3072 19.7437 30.1895 19.8644 30.1895 19.9649C30.1895 20.2866 31.1605 20.548 32.8818 20.6888C34.3677 20.8094 34.6031 20.7893 34.6031 20.5078C34.6031 20.1861 34.2206 20.0453 32.617 19.8644C32.0579 19.804 31.3959 19.7236 31.1458 19.6834C30.9104 19.6432 30.5867 19.6432 30.4543 19.7035Z" fill="white"/>
<path d="M27.4297 25.2866C27.4297 25.5497 30.7664 27.9307 31.1217 27.9307C31.2144 27.9307 31.2917 27.878 31.2917 27.8254C31.2917 27.6676 30.1176 26.7336 28.8972 25.9048C27.8777 25.2076 27.4297 25.0235 27.4297 25.2866Z" fill="white"/>
<path d="M7.01601 27.576C6.57353 27.8349 5.0387 28.9937 4.91425 29.154C4.77598 29.3142 4.77598 29.5854 4.91425 29.5854C5.13549 29.5854 7.5691 27.7239 7.5691 27.5513C7.5691 27.3171 7.43083 27.3171 7.01601 27.576Z" fill="white"/>
<path d="M16.4038 30.3969C16.3645 32.7937 16.4823 33.7336 16.7834 33.3733C17.0845 32.9973 16.9405 29.0341 16.6132 29.0341C16.4692 29.0341 16.43 29.3474 16.4038 30.3969Z" fill="white"/>
<path d="M24.1263 29.6561C24.0691 29.7489 24.3838 30.63 24.8273 31.6348C25.5998 33.3817 25.9574 34 26.2149 34C26.4724 34 26.3007 33.4435 25.5282 31.7894C24.6985 29.9808 24.2837 29.3624 24.1263 29.6561Z" fill="white"/>
</svg>
